<svg xmlns="http://www.w3.org/2000/svg" width="459" height="503" viewBox="0 0 459 503"><defs><style>.a{fill:#fff;}</style></defs><path class="a" d="M256.5,27C129.75,27,27,129.75,27,256.5A229.51,229.51,0,0,0,158.7,464.16,104.77,104.77,0,0,1,156,440.5v-.13a209.17,209.17,0,0,1-47.64-35.73,211.38,211.38,0,0,1-18.46-21.1c15.76-37.74,51.25-68.33,96.76-84a105.28,105.28,0,0,0,139.68,0c45.51,15.71,81,46.3,96.76,84a210.95,210.95,0,0,1-58.21,52.3c.07,1.54.11,3.1.11,4.66a104,104,0,0,1-1.78,19.21A229.45,229.45,0,0,0,486,256.5C486,129.75,383.25,27,256.5,27Zm85.4,197.42c0,.3,0,.6,0,.91-.07,1.27-.17,2.53-.29,3.79l-.06.5c-.12,1.13-.26,2.25-.43,3.36,0,.3-.08.6-.13.9-.19,1.21-.4,2.41-.64,3.6l-.18.82c-.21,1-.44,2-.68,2.95-.08.31-.15.62-.23.93-.29,1.12-.61,2.24-1,3.34-.11.36-.23.72-.34,1.08-.28.86-.57,1.73-.88,2.58-.11.33-.22.66-.34,1-.38,1-.79,2-1.2,3.05-.18.43-.37.86-.56,1.29-.32.74-.65,1.47-1,2.2s-.55,1.15-.83,1.72-.7,1.39-1.06,2.08c-.27.49-.53,1-.81,1.48s-.67,1.18-1,1.76c-.45.77-.91,1.53-1.39,2.28l-.85,1.34-1.1,1.64-.75,1.05c-.69,1-1.4,1.91-2.12,2.85l-.67.84c-1.49,1.87-3.05,3.68-4.69,5.41l-.45.47q-2.6,2.72-5.41,5.18l-.18.16a86.33,86.33,0,0,1-10.49,7.82h0A85.35,85.35,0,0,1,200.37,285l-.19-.16q-2.82-2.46-5.41-5.18l-.45-.47c-1.64-1.73-3.2-3.54-4.69-5.41-.23-.28-.45-.56-.67-.85-.72-.93-1.43-1.87-2.11-2.83l-.76-1.07-1.1-1.63-.85-1.34c-.48-.75-.94-1.52-1.39-2.28-.35-.59-.68-1.17-1-1.76s-.54-1-.81-1.48c-.36-.69-.71-1.38-1.06-2.08s-.56-1.14-.83-1.72c-.34-.73-.67-1.46-1-2.2-.19-.43-.38-.86-.56-1.29-.41-1-.82-2-1.2-3.05-.12-.32-.23-.65-.34-1-.31-.85-.6-1.72-.88-2.58-.11-.36-.23-.72-.34-1.08-.34-1.1-.66-2.22-.95-3.34-.08-.31-.15-.62-.23-.93-.24-1-.47-2-.68-2.95l-.18-.82c-.24-1.19-.45-2.39-.64-3.6-.05-.3-.09-.6-.13-.9-.17-1.11-.31-2.23-.43-3.36l-.06-.5c-.12-1.26-.22-2.52-.29-3.79,0-.31,0-.61,0-.91-.06-1.3-.1-2.61-.1-3.92a85.48,85.48,0,0,1,143-63.29c1,.92,2,1.87,3,2.83A86.32,86.32,0,0,1,327.4,172.7,85.06,85.06,0,0,1,342,220.5C342,221.81,342,223.12,341.9,224.42Z" transform="translate(-27 -27)"/><path class="a" d="M260.5,351A89.5,89.5,0,1,0,350,440.5,89.5,89.5,0,0,0,260.5,351Zm30.68,157.43-11.33-11.32a64.22,64.22,0,0,1-43.3-.22,59.17,59.17,0,0,1-36.23-36,64.59,64.59,0,0,1-2.19-37.59,3.73,3.73,0,0,1,6.26-1.76l12.82,12.82,18.7,18.18a3.71,3.71,0,0,0,3.38,1l25.58-5.22a3.73,3.73,0,0,0,2.9-2.9L273,419.81a3.72,3.72,0,0,0-1-3.37l-32.43-31.92a3.71,3.71,0,0,1,1.51-6.18c13.47-4,28.82-3.6,44.42,3.06a57.05,57.05,0,0,1,30.15,30c7.22,16.92,7.15,33.63,2,47.94l11.12,11.12A75,75,0,0,1,291.18,508.43Z" transform="translate(-27 -27)"/></svg>