<svg xmlns="http://www.w3.org/2000/svg" width="459" height="503" viewBox="0 0 459 503"><defs><style>.a{fill:#fff;}</style></defs><path class="a" d="M256.5,27C129.75,27,27,129.75,27,256.5A229.51,229.51,0,0,0,158.7,464.16,104.77,104.77,0,0,1,156,440.5v-.13a209.17,209.17,0,0,1-47.64-35.73,211.38,211.38,0,0,1-18.46-21.1c15.76-37.74,51.25-68.33,96.76-84a105.28,105.28,0,0,0,139.68,0c45.51,15.71,81,46.3,96.76,84a210.95,210.95,0,0,1-58.21,52.3c.07,1.54.11,3.1.11,4.66a104,104,0,0,1-1.78,19.21A229.45,229.45,0,0,0,486,256.5C486,129.75,383.25,27,256.5,27Zm85.4,197.42c0,.3,0,.6,0,.91-.07,1.27-.17,2.53-.29,3.79l-.06.5c-.12,1.13-.26,2.25-.43,3.36,0,.3-.08.6-.13.9-.19,1.21-.4,2.41-.64,3.6l-.18.82c-.21,1-.44,2-.68,2.95-.08.31-.15.62-.23.93-.29,1.12-.61,2.24-1,3.34-.11.36-.23.72-.34,1.08-.28.86-.57,1.73-.88,2.58-.11.33-.22.66-.34,1-.38,1-.79,2-1.2,3.05-.18.43-.37.86-.56,1.29-.32.74-.65,1.47-1,2.2s-.55,1.15-.83,1.72-.7,1.39-1.06,2.08c-.27.49-.53,1-.81,1.48s-.67,1.18-1,1.76c-.45.77-.91,1.53-1.39,2.28l-.85,1.34-1.1,1.64-.75,1.05c-.69,1-1.4,1.91-2.12,2.85l-.67.84c-1.49,1.87-3.05,3.68-4.69,5.41l-.45.47q-2.6,2.72-5.41,5.18l-.18.16a86.33,86.33,0,0,1-10.49,7.82h0A85.35,85.35,0,0,1,200.37,285l-.19-.16q-2.82-2.46-5.41-5.18l-.45-.47c-1.64-1.73-3.2-3.54-4.69-5.41-.23-.28-.45-.56-.67-.85-.72-.93-1.43-1.87-2.11-2.83l-.76-1.07-1.1-1.63-.85-1.34c-.48-.75-.94-1.52-1.39-2.28-.35-.59-.68-1.17-1-1.76s-.54-1-.81-1.48c-.36-.69-.71-1.38-1.06-2.08s-.56-1.14-.83-1.72c-.34-.73-.67-1.46-1-2.2-.19-.43-.38-.86-.56-1.29-.41-1-.82-2-1.2-3.05-.12-.32-.23-.65-.34-1-.31-.85-.6-1.72-.88-2.58-.11-.36-.23-.72-.34-1.08-.34-1.1-.66-2.22-.95-3.34-.08-.31-.15-.62-.23-.93-.24-1-.47-2-.68-2.95l-.18-.82c-.24-1.19-.45-2.39-.64-3.6-.05-.3-.09-.6-.13-.9-.17-1.11-.31-2.23-.43-3.36l-.06-.5c-.12-1.26-.22-2.52-.29-3.79,0-.31,0-.61,0-.91-.06-1.3-.1-2.61-.1-3.92a85.48,85.48,0,0,1,143-63.29c1,.92,2,1.87,3,2.83A86.32,86.32,0,0,1,327.4,172.7,85.06,85.06,0,0,1,342,220.5C342,221.81,342,223.12,341.9,224.42Z" transform="translate(-27 -27)"/><circle class="a" cx="233.84" cy="417.01" r="23.04"/><path class="a" d="M260.5,351A89.5,89.5,0,1,0,350,440.5,89.5,89.5,0,0,0,260.5,351Zm46.86,93a44.94,44.94,0,0,1-1,9.49l14.34,12a5.1,5.1,0,0,1,1.86,6.94l-6.35,11a5.09,5.09,0,0,1-6.94,1.86l-18.16-6.61a46.67,46.67,0,0,1-14.88,8.44L273.08,505A5.1,5.1,0,0,1,268,510H255.31a5.09,5.09,0,0,1-5.08-5.08l-3-17.23a46.71,46.71,0,0,1-16.12-8.58l-17,6.19a5.08,5.08,0,0,1-6.93-1.86l-6.35-11a5.09,5.09,0,0,1,1.86-6.94l13-10.88a45.34,45.34,0,0,1-.25-20.22l-12.72-10.68a5.09,5.09,0,0,1-1.86-6.94l6.35-11A5.08,5.08,0,0,1,214,404l16,5.81a46.71,46.71,0,0,1,17.17-9.47l3-17.23a5.09,5.09,0,0,1,5.08-5.08H268a5.1,5.1,0,0,1,5.08,5.08l3.14,17.79a46.66,46.66,0,0,1,15.91,9.33L309.26,404a5.09,5.09,0,0,1,6.94,1.86l6.35,11a5.1,5.1,0,0,1-1.86,6.94l-14.12,11.85A45.57,45.57,0,0,1,307.36,444Z" transform="translate(-27 -27)"/></svg>