<?xml version="1.0" encoding="utf-8"?>
<!-- Generator: Adobe Illustrator 25.4.8, SVG Export Plug-In . SVG Version: 6.00 Build 0)  -->
<svg version="1.1" id="Layer_1" xmlns="http://www.w3.org/2000/svg" xmlns:xlink="http://www.w3.org/1999/xlink" x="0px" y="0px"
	 viewBox="0 0 512 512" style="enable-background:new 0 0 512 512;" xml:space="preserve">
<style type="text/css">
	.st0{fill:#FFFFFF;}
</style>
<path class="st0" d="M417.6,378.63l-73.2-73.2c14.48-21.82,22.93-47.98,22.93-76.08c0-76.08-61.9-137.98-137.98-137.98
	S91.37,153.27,91.37,229.35s61.9,137.98,137.98,137.98c28.14,0,54.33-8.47,76.17-22.99l73.18,73.18c5.37,5.37,12.41,8.05,19.45,8.05
	c7.04,0,14.08-2.69,19.45-8.05C428.34,406.78,428.34,389.37,417.6,378.63z M146.37,229.35c0-45.75,37.22-82.98,82.98-82.98
	s82.98,37.22,82.98,82.98s-37.22,82.98-82.98,82.98S146.37,275.11,146.37,229.35z"/>
</svg>
